<svg xmlns="http://www.w3.org/2000/svg" fill="none" viewBox="0 0 22 22"><g fill="#fff" clip-path="url(#a)"><path d="M1.3 14.3H11V16h6.2v-1.8h2.4c.2 2.1.2 4-2 5.5h-.1l.8.8-1 .9-1-1-.4-.1H5.3c-.5-.1-.7 0-1 .4l-.7.7-.9-1 .8-.6-.5-.4c-1-.8-1.6-1.9-1.7-3.2v-2ZM1.3 9.3V3.7A3 3 0 0 1 4.5.5l2 .1c1 .3 1.7 1 2 2.1l.4.4A3 3 0 0 1 11.1 6v.6h-6c-.4-1.5.5-3 2.2-3.6-.1-.6-.8-1.2-1.5-1.3H4.2c-1 0-1.7 1-1.7 2V9.2H1.3ZM11 13H1.5c-.7 0-1.2-.3-1.3-.8-.3-.8.3-1.6 1.2-1.6H11V13Z"/><path d="M16 14.9h-3.6v-4.2c0-.9.4-1.4 1.4-1.4h1c.7 0 1.2.6 1.2 1.3V15ZM17.3 13v-2.5H20c.6.2 1 .7 1 1.3 0 .7-.5 1.2-1.1 1.2h-2.6Z"/></g><defs><clipPath id="a"><path fill="#fff" d="M0 .5h21v21H0z"/></clipPath></defs></svg>