<svg xmlns="http://www.w3.org/2000/svg" fill="none" viewBox="0 0 24 25"><g fill="#fff" clip-path="url(#a)"><path d="M12 20H3c-.3 0-.4.1-.4.4v.5c-.1.3-.4.6-.8.6a.8.8 0 0 1-.8-.7v-5.5c0-1 .4-2 1.1-2.7a4 4 0 0 1 3-1.1H19a3.9 3.9 0 0 1 4 4v5.1c0 .3 0 .5-.3.7-.2.2-.5.3-.8.1a.7.7 0 0 1-.4-.6v-.4c0-.2-.2-.4-.4-.4H12ZM11.9 4.5h5.8c.7 0 1.3.1 1.8.5.7.5 1 1.2 1.1 2v3.7c0 .1 0 .2-.2.2l-.4-.1-1-.1c-.2 0-.3 0-.3-.3-.1-.7-.8-1.3-1.6-1.3h-2.7c-.7 0-1.3.4-1.5 1v.3c-.1.2-.2.3-.4.3h-1c-.2 0-.3 0-.3-.3 0-.2-.1-.5-.3-.7-.3-.4-.7-.6-1.2-.6H6.9c-.8 0-1.5.6-1.6 1.3 0 .2 0 .3-.3.3H4l-.4.2c-.1 0-.2 0-.2-.2V7.3c0-1.2.5-2 1.6-2.6a3 3 0 0 1 1.3-.2H12Z"/></g><defs><clipPath id="a"><path fill="#fff" d="M1 4.5h22v17H1z"/></clipPath></defs></svg>