<svg width="18" height="19" viewBox="0 0 18 19" fill="none" xmlns="http://www.w3.org/2000/svg">
<path d="M0.75 3.5C0.75 2.25736 1.75736 1.25 3 1.25H5.25C6.49264 1.25 7.5 2.25736 7.5 3.5V5.75C7.5 6.99264 6.49264 8 5.25 8H3C1.75736 8 0.75 6.99264 0.75 5.75V3.5Z" stroke="#999999" stroke-width="1.5" stroke-linecap="round" stroke-linejoin="round"/>
<path d="M0.75 13.25C0.75 12.0074 1.75736 11 3 11H5.25C6.49264 11 7.5 12.0074 7.5 13.25V15.5C7.5 16.7426 6.49264 17.75 5.25 17.75H3C1.75736 17.75 0.75 16.7426 0.75 15.5V13.25Z" stroke="#999999" stroke-width="1.5" stroke-linecap="round" stroke-linejoin="round"/>
<path d="M10.5 3.5C10.5 2.25736 11.5074 1.25 12.75 1.25H15C16.2426 1.25 17.25 2.25736 17.25 3.5V5.75C17.25 6.99264 16.2426 8 15 8H12.75C11.5074 8 10.5 6.99264 10.5 5.75V3.5Z" stroke="#999999" stroke-width="1.5" stroke-linecap="round" stroke-linejoin="round"/>
<path d="M10.5 13.25C10.5 12.0074 11.5074 11 12.75 11H15C16.2426 11 17.25 12.0074 17.25 13.25V15.5C17.25 16.7426 16.2426 17.75 15 17.75H12.75C11.5074 17.75 10.5 16.7426 10.5 15.5V13.25Z" stroke="#999999" stroke-width="1.5" stroke-linecap="round" stroke-linejoin="round"/>
</svg>
