<svg width="175" height="175" viewBox="0 0 175 175" fill="none" xmlns="http://www.w3.org/2000/svg">
<rect width="175" height="175" rx="87.5" fill="#141414"/>
<rect x="0.795455" y="0.795455" width="173.409" height="173.409" rx="86.7045" stroke="#1E1C1C" stroke-opacity="0.8" stroke-width="1.59091"/>
<rect x="47.7271" y="47.7273" width="79.5455" height="79.5455" rx="39.7727" fill="#1A1A1A"/>
<rect x="48.5225" y="48.5227" width="77.9545" height="77.9545" rx="38.9773" stroke="#1E1C1C" stroke-opacity="0.8" stroke-width="1.59091"/>
<path d="M76.875 97.625L98.125 76.375M98.125 76.375L82.1875 76.375M98.125 76.375V92.3125" stroke="white" stroke-width="2" stroke-linecap="round" stroke-linejoin="round"/>
<path d="M102.745 140.63L87.8821 142.712L89.9646 157.575L104.827 155.492L102.745 140.63Z" fill="white"/>
<path d="M83.5541 145.606L81.9771 155.992L78.5422 155.471C77.8251 155.362 77.1731 155.124 76.5863 154.756C75.9987 154.394 75.5039 153.937 75.102 153.385C74.6993 152.838 74.4121 152.23 74.2404 151.562C74.063 150.897 74.0287 150.206 74.1376 149.489C74.2465 148.772 74.4846 148.12 74.852 147.533C75.2137 146.951 75.6684 146.455 76.216 146.048C76.7629 145.645 77.3711 145.355 78.0405 145.179C78.7092 145.007 79.4021 144.976 80.1192 145.084L83.5541 145.606ZM81.7767 146.915L79.8849 146.628C79.3805 146.551 78.8963 146.574 78.4326 146.695C77.9638 146.817 77.5358 147.02 77.1484 147.305C76.7561 147.589 76.4325 147.938 76.1777 148.349C75.923 148.761 75.7573 149.219 75.6807 149.723C75.6041 150.228 75.6263 150.714 75.7475 151.183C75.8686 151.652 76.0742 152.08 76.3644 152.468C76.6497 152.856 76.9981 153.177 77.4098 153.432C77.8165 153.686 78.272 153.851 78.7765 153.928L80.6683 154.215L81.7767 146.915Z" fill="white"/>
<path d="M66.609 149.57L65.1384 149.048L67.652 141.977L69.1227 142.5L66.609 149.57ZM65.495 150.329C65.7213 150.41 65.8839 150.55 65.9827 150.749C66.0816 150.949 66.0917 151.16 66.0129 151.381C65.9358 151.598 65.7959 151.753 65.5931 151.845C65.3887 151.943 65.1757 151.952 64.9541 151.873C64.7373 151.796 64.5803 151.655 64.4831 151.451C64.3842 151.251 64.3733 151.043 64.4504 150.826C64.5292 150.604 64.6699 150.447 64.8727 150.355C65.0708 150.261 65.2782 150.252 65.495 150.329Z" fill="white"/>
<path d="M60.427 138.548C60.7624 138.758 61.0628 139.012 61.3281 139.31C61.5935 139.608 61.7966 139.926 61.9375 140.264C62.0716 140.604 62.125 140.946 62.0978 141.29L60.6585 141.158C60.6657 141.008 60.63 140.838 60.5513 140.647C60.4683 140.454 60.3503 140.268 60.1974 140.088C60.0421 139.913 59.8589 139.768 59.6479 139.653C59.4412 139.541 59.2344 139.466 59.0275 139.428C58.8139 139.392 58.6165 139.404 58.4353 139.465C58.2542 139.526 58.1171 139.642 58.0241 139.814C57.9191 140.007 57.9039 140.193 57.9786 140.37C58.0465 140.549 58.1616 140.719 58.3241 140.882C58.4865 141.044 58.6502 141.204 58.815 141.361C59.1934 141.692 59.5176 142.039 59.7874 142.401C60.0506 142.766 60.2161 143.138 60.284 143.516C60.3495 143.899 60.2773 144.283 60.0673 144.67C59.8383 145.092 59.5259 145.395 59.1303 145.579C58.7323 145.767 58.3032 145.845 57.8432 145.811C57.3788 145.776 56.9356 145.643 56.5135 145.414C55.9858 145.128 55.563 144.753 55.245 144.291C54.927 143.828 54.7576 143.337 54.7369 142.82L56.1759 142.764C56.1702 142.931 56.2048 143.104 56.2794 143.281C56.3541 143.458 56.4582 143.623 56.5919 143.775C56.7232 143.932 56.8766 144.063 57.0521 144.17C57.2716 144.3 57.4947 144.387 57.7216 144.431C57.9417 144.476 58.1435 144.466 58.327 144.401C58.5105 144.335 58.656 144.203 58.7633 144.006C58.8683 143.812 58.8789 143.63 58.795 143.459C58.7088 143.293 58.5779 143.125 58.4023 142.956C58.2222 142.784 58.0414 142.604 57.8597 142.414C57.5352 142.078 57.2503 141.728 57.0052 141.361C56.7577 140.999 56.5988 140.631 56.5285 140.257C56.4582 139.883 56.5288 139.512 56.7404 139.143C56.9647 138.73 57.2868 138.435 57.7068 138.259C58.1225 138.08 58.5723 138.017 59.0563 138.069C59.5403 138.121 59.9972 138.281 60.427 138.548Z" fill="white"/>
<path d="M48.1253 132.763L47.5389 131.287C48.1045 131.14 48.6803 131.125 49.2663 131.243C49.8485 131.357 50.3739 131.61 50.8426 132.001C51.3728 132.443 51.7431 132.983 51.9536 133.621C52.1603 134.256 52.2035 134.911 52.0835 135.586C51.9564 136.261 51.6606 136.878 51.196 137.435C50.8436 137.857 50.4402 138.189 49.986 138.429C49.5286 138.673 49.0539 138.824 48.562 138.883C48.063 138.942 47.573 138.905 47.0921 138.771C46.6111 138.636 46.1728 138.404 45.7771 138.074C45.3083 137.684 44.9655 137.212 44.7486 136.66C44.5279 136.104 44.4407 135.533 44.487 134.947L46.0443 135.259C46.0454 135.585 46.1119 135.888 46.2438 136.168C46.3724 136.451 46.55 136.687 46.7767 136.876C47.0917 137.139 47.45 137.291 47.8516 137.333C48.2462 137.375 48.6353 137.318 49.019 137.163C49.3957 137.008 49.7218 136.766 49.9974 136.435C50.2697 136.109 50.4479 135.743 50.532 135.337C50.6128 134.936 50.597 134.545 50.4844 134.164C50.368 133.78 50.1542 133.459 49.843 133.199C49.6048 133.001 49.3333 132.865 49.0284 132.793C48.7236 132.722 48.4225 132.712 48.1253 132.763Z" fill="white"/>
<path d="M42.3655 123.245C42.7868 123.792 43.0308 124.4 43.0976 125.068C43.1612 125.733 43.0611 126.381 42.7971 127.014C42.5261 127.646 42.1034 128.183 41.5288 128.626C41.0929 128.962 40.6271 129.198 40.1316 129.333C39.6321 129.472 39.1359 129.516 38.643 129.466C38.143 129.416 37.6729 129.273 37.2326 129.038C36.7923 128.802 36.4149 128.48 36.1004 128.072C35.679 127.525 35.4365 126.92 35.3729 126.255C35.3062 125.586 35.4083 124.936 35.6793 124.304C35.9472 123.669 36.3704 123.128 36.949 122.682C37.3809 122.349 37.8447 122.115 38.3402 121.979C38.8357 121.844 39.3335 121.801 39.8334 121.852C40.3264 121.902 40.793 122.044 41.2333 122.28C41.6705 122.511 42.0479 122.833 42.3655 123.245ZM41.1291 124.198C40.8757 123.869 40.561 123.641 40.1852 123.513C39.8093 123.386 39.4207 123.357 39.0194 123.427C38.611 123.495 38.2384 123.659 37.9016 123.918C37.5568 124.184 37.3009 124.507 37.1337 124.889C36.9635 125.266 36.894 125.651 36.9251 126.044C36.9522 126.44 37.0894 126.799 37.3368 127.12C37.5871 127.444 37.9018 127.673 38.2807 127.804C38.6566 127.931 39.0487 127.96 39.457 127.892C39.8623 127.82 40.2354 127.652 40.5762 127.39C40.9289 127.118 41.1868 126.793 41.35 126.415C41.5132 126.036 41.5792 125.651 41.5481 125.258C41.51 124.864 41.3703 124.511 41.1291 124.198Z" fill="white"/>
<path d="M34.969 111.333L35.8175 113.148L30.166 118.813L29.4606 117.304L33.7634 113.007L27.7033 113.545L27.001 112.043L34.969 111.333Z" fill="white"/>
<path d="M31.6069 100.622C31.7562 101.296 31.7192 101.95 31.4959 102.584C31.2714 103.212 30.9054 103.757 30.3978 104.218C29.8842 104.675 29.2733 104.982 28.5652 105.139C28.0279 105.258 27.5062 105.274 27 105.186C26.4889 105.1 26.0207 104.929 25.5955 104.675C25.1643 104.417 24.7993 104.088 24.5005 103.688C24.2018 103.288 23.9967 102.836 23.8852 102.333C23.7607 101.772 23.7638 101.23 23.8943 100.71C24.0199 100.19 24.2511 99.7185 24.5877 99.2955C24.9195 98.8735 25.3342 98.5254 25.832 98.2512C26.3248 97.978 26.8762 97.8071 27.4861 97.7385L28.7379 103.387C29.0608 103.249 29.339 103.059 29.5725 102.818C29.8 102.573 29.9605 102.291 30.054 101.973C30.1464 101.65 30.1561 101.313 30.083 100.96C30.0008 100.589 29.8333 100.272 29.5806 100.011C29.3268 99.744 29.0147 99.5493 28.6441 99.4264L28.6605 97.8011C29.3751 97.9502 30.0054 98.2742 30.5515 98.7732C31.0927 99.2732 31.4445 99.8895 31.6069 100.622ZM27.5844 103.696L26.6622 99.5352C26.3214 99.6619 26.0315 99.8568 25.7926 100.12C25.5478 100.379 25.3753 100.676 25.2753 101.011C25.1693 101.342 25.1553 101.683 25.2332 102.035C25.31 102.381 25.4645 102.685 25.6966 102.946C25.9276 103.203 26.2088 103.397 26.5403 103.528C26.8658 103.656 27.2138 103.712 27.5844 103.696Z" fill="white"/>
<path d="M30.0171 90.964L22.5149 91.1149L22.4835 89.5544L23.2787 89.5384C22.9634 89.2846 22.7119 88.9694 22.5242 88.5929C22.3365 88.2164 22.2382 87.8081 22.2293 87.368C22.2237 87.0879 22.2556 86.8095 22.3251 86.533L23.9131 87.124C23.842 87.3205 23.8084 87.5163 23.8124 87.7114C23.819 88.0415 23.9076 88.3424 24.0782 88.6142C24.2438 88.8861 24.4658 89.1017 24.7442 89.2613C25.0226 89.4208 25.3293 89.4972 25.6644 89.4904L29.9858 89.4035L30.0171 90.964Z" fill="white"/>
<path d="M23.8124 63.6741L24.4017 61.9327L28.7106 67.1777L33.2027 68.6981L32.7023 70.1765L28.2102 68.6561L21.604 70.199L22.1934 68.4576L26.8469 67.3708L23.8124 63.6741Z" fill="white"/>
<path d="M38.7446 57.5266C38.3781 58.1116 37.8929 58.5514 37.2892 58.8461C36.6881 59.1366 36.045 59.2679 35.3599 59.2402C34.6732 59.2055 34.0226 58.9956 33.4079 58.6105C32.9416 58.3183 32.5588 57.9634 32.2597 57.5458C31.9563 57.1255 31.7423 56.6756 31.6177 56.1961C31.4915 55.7097 31.4623 55.2191 31.5302 54.7245C31.5981 54.2298 31.7688 53.7642 32.0423 53.3275C32.4089 52.7425 32.8927 52.3048 33.4938 52.0143C34.0976 51.7196 34.7428 51.5896 35.4294 51.6243C36.1187 51.6547 36.7729 51.8638 37.3918 52.2516C37.8539 52.5411 38.2345 52.8946 38.5336 53.3123C38.8328 53.7299 39.0455 54.182 39.1717 54.6684C39.2963 55.1478 39.3247 55.6349 39.2568 56.1296C39.1916 56.62 39.0208 57.0857 38.7446 57.5266ZM37.422 56.6979C37.6424 56.3461 37.747 55.9718 37.7358 55.5751C37.7245 55.1785 37.6168 54.804 37.4125 54.4517C37.2066 54.0925 36.9235 53.8 36.5631 53.5742C36.1943 53.3432 35.8021 53.2155 35.3864 53.1912C34.9733 53.1626 34.588 53.2311 34.2304 53.3967C33.8686 53.5596 33.5801 53.8128 33.365 54.1562C33.1472 54.5038 33.0426 54.878 33.0512 55.2789C33.0624 55.6756 33.171 56.0535 33.3769 56.4127C33.5854 56.7677 33.872 57.0594 34.2365 57.2878C34.6138 57.5242 35.0082 57.6532 35.4197 57.6749C35.8311 57.6965 36.2157 57.6246 36.5732 57.459C36.9292 57.2865 37.2121 57.0328 37.422 56.6979Z" fill="white"/>
<path d="M42.1172 47.7451L38.7794 44.4505L39.8759 43.3397L42.9413 46.3654C43.1798 46.6009 43.455 46.7565 43.7668 46.8323C44.0786 46.9081 44.3899 46.9061 44.7006 46.8262C45.0078 46.7428 45.2774 46.5837 45.5093 46.3487C45.7448 46.1102 45.9004 45.8385 45.9763 45.5338C46.0521 45.222 46.0483 44.9125 45.9649 44.6053C45.8851 44.2946 45.7259 44.0214 45.4873 43.786L42.4219 40.7603L43.5183 39.6495L48.8641 44.9154L47.7676 46.0262L47.1856 45.4623C47.2271 45.8617 47.1784 46.26 47.0395 46.6571C46.9006 47.0542 46.6783 47.4076 46.3726 47.7173C45.9825 48.1125 45.5314 48.3772 45.0194 48.5115C44.5073 48.6457 43.9944 48.649 43.4807 48.5215C42.9669 48.394 42.5124 48.1352 42.1172 47.7451Z" fill="white"/>
<path d="M53.4152 41.2552L49.172 35.0663L50.4593 34.1837L50.909 34.8397C50.9482 34.4368 51.0736 34.0536 51.2854 33.6901C51.4971 33.3266 51.7845 33.0203 52.1476 32.7714C52.3786 32.613 52.6288 32.4869 52.8982 32.3932L53.2756 34.0451C53.0723 34.0935 52.8901 34.1729 52.7292 34.2832C52.4569 34.4699 52.254 34.7091 52.1204 35.0009C51.984 35.2885 51.9255 35.5924 51.9449 35.9127C51.9644 36.233 52.0688 36.5314 52.2584 36.8078L54.7025 40.3726L53.4152 41.2552Z" fill="white"/>
<path d="M69.2223 32.8538L66.649 22.6685L70.0174 21.8174C70.7207 21.6398 71.414 21.6065 72.0974 21.7176C72.7795 21.8239 73.4128 22.0535 73.9973 22.4063C74.5805 22.7542 75.0809 23.2031 75.4984 23.7529C75.9196 24.2966 76.219 24.9201 76.3967 25.6234C76.5744 26.3267 76.6077 27.02 76.4965 27.7034C76.389 28.3806 76.1619 29.0133 75.8152 29.6014C75.4672 30.1847 75.0189 30.6875 74.4703 31.1099C73.9205 31.5274 73.294 31.825 72.5907 32.0027L69.2223 32.8538ZM70.3532 30.9582L72.2084 30.4895C72.7031 30.3645 73.1406 30.1559 73.5209 29.8638C73.906 29.5704 74.2217 29.2172 74.4682 28.804C74.7196 28.3897 74.8828 27.9434 74.9581 27.4651C75.0333 26.9869 75.0085 26.5004 74.8835 26.0057C74.7585 25.511 74.5493 25.0711 74.2559 24.686C73.9626 24.3009 73.6069 23.9857 73.1889 23.7405C72.7758 23.494 72.3301 23.3331 71.8519 23.2579C71.3785 23.1814 70.8944 23.2057 70.3997 23.3307L68.5446 23.7994L70.3532 30.9582Z" fill="white"/>
<path d="M83.7033 30.0934L83.4381 22.5943L84.9979 22.5391L85.026 23.334C85.275 23.0149 85.5863 22.7586 85.9599 22.5652C86.3335 22.3717 86.7403 22.2673 87.1802 22.2517C87.4602 22.2418 87.739 22.2695 88.0166 22.3347L87.4499 23.9316C87.2523 23.8635 87.056 23.8329 86.861 23.8398C86.531 23.8514 86.2315 23.9446 85.9623 24.1193C85.693 24.289 85.4807 24.5143 85.3255 24.7951C85.1702 25.0759 85.0985 25.3838 85.1104 25.7187L85.2631 30.0382L83.7033 30.0934Z" fill="white"/>
<path d="M96.7107 30.8791C96.0294 30.7673 95.4362 30.49 94.9309 30.0472C94.4306 29.6052 94.0608 29.0629 93.8215 28.4204C93.5879 27.7737 93.5299 27.0925 93.6473 26.3767C93.7364 25.8337 93.9157 25.3435 94.1852 24.9061C94.4555 24.4638 94.7876 24.0924 95.1816 23.7921C95.5813 23.4876 96.0224 23.271 96.5049 23.1423C96.9873 23.0136 97.4827 22.991 97.9912 23.0744C98.5589 23.1676 99.0603 23.3715 99.4953 23.6862C99.9311 23.996 100.283 24.3858 100.551 24.8555C100.819 25.3203 100.988 25.8347 101.058 26.3987C101.128 26.9578 101.082 27.5332 100.919 28.1249L95.2099 27.1882C95.2182 27.5393 95.291 27.8681 95.4283 28.1745C95.5713 28.4768 95.773 28.7304 96.0334 28.9354C96.2988 29.1411 96.6087 29.2756 96.9634 29.3389C97.3385 29.4004 97.6945 29.3625 98.0314 29.2252C98.3732 29.0886 98.6699 28.8712 98.9217 28.5728L100.425 29.192C100.021 29.8 99.4856 30.2647 98.8194 30.5863C98.1541 30.903 97.4511 31.0006 96.7107 30.8791ZM95.3512 26.0023L99.5572 26.6924C99.5661 26.3289 99.4929 25.9873 99.3375 25.6678C99.1878 25.3442 98.9762 25.0737 98.7026 24.8565C98.4347 24.6351 98.1231 24.4952 97.7677 24.4369C97.4172 24.3794 97.0776 24.4099 96.7489 24.5283C96.4252 24.6476 96.1407 24.8366 95.8954 25.0955C95.6559 25.3502 95.4745 25.6525 95.3512 26.0023Z" fill="white"/>
<path d="M114.514 28.1745L115.959 28.7663L113.113 35.7098L111.662 35.1152L112.019 34.0856C111.67 34.3586 111.277 34.5327 110.84 34.608C110.404 34.6833 109.95 34.6243 109.477 34.4308C108.968 34.2222 108.528 33.9309 108.157 33.5572C107.787 33.1788 107.502 32.7481 107.3 32.2652C107.102 31.7842 106.999 31.2826 106.992 30.7605C106.986 30.2337 107.088 29.7134 107.299 29.1996C107.502 28.7043 107.785 28.277 108.148 27.9177C108.514 27.5538 108.928 27.2749 109.391 27.0809C109.855 26.8869 110.34 26.7855 110.846 26.7768C111.359 26.7653 111.863 26.861 112.358 27.064C112.863 27.2707 113.26 27.5685 113.549 27.9574C113.845 28.3436 114.047 28.767 114.156 29.2278L114.514 28.1745ZM110.015 33.0209C110.422 33.1878 110.819 33.2344 111.206 33.1605C111.595 33.082 111.943 32.9056 112.25 32.6314C112.562 32.359 112.803 32.0145 112.974 31.5979C113.146 31.1767 113.217 30.7597 113.186 30.347C113.155 29.9342 113.028 29.5658 112.804 29.2415C112.587 28.9146 112.274 28.6676 111.867 28.5007C111.464 28.3357 111.054 28.2867 110.638 28.3538C110.221 28.421 109.845 28.5859 109.51 28.8488C109.176 29.1117 108.923 29.4515 108.752 29.8681C108.579 30.2893 108.523 30.712 108.581 31.1361C108.646 31.5575 108.802 31.9373 109.047 32.2757C109.299 32.6113 109.621 32.8597 110.015 33.0209Z" fill="white"/>
<path d="M118.173 38.2957L122.717 32.3243L123.959 33.2695L123.477 33.9025C123.872 33.8132 124.274 33.8105 124.681 33.8944C125.093 33.9813 125.474 34.1581 125.824 34.4247C126.25 34.7489 126.563 35.1508 126.764 35.6304C126.968 36.1061 127.047 36.5934 127 37.0923C127.469 36.9145 127.955 36.8574 128.46 36.921C128.972 36.9836 129.441 37.177 129.867 37.5011C130.309 37.8374 130.629 38.2509 130.827 38.7415C131.026 39.2322 131.095 39.7404 131.034 40.2663C130.974 40.7921 130.775 41.276 130.439 41.7179L127.59 45.4619L126.348 44.5167L128.956 41.0892C129.156 40.8264 129.276 40.5371 129.315 40.2212C129.354 39.9053 129.318 39.5979 129.206 39.299C129.094 39 128.906 38.7506 128.644 38.5506C128.381 38.3507 128.094 38.2326 127.782 38.1964C127.47 38.1602 127.167 38.2031 126.873 38.3251C126.579 38.4471 126.326 38.6475 126.114 38.9261L123.505 42.3537L122.263 41.4085L124.872 37.9809C125.084 37.7023 125.209 37.405 125.249 37.0891C125.288 36.7732 125.246 36.4682 125.124 36.1742C125.006 35.8833 124.816 35.6378 124.553 35.4378C124.295 35.2409 124.004 35.1268 123.682 35.0956C123.364 35.0673 123.058 35.1142 122.764 35.2362C122.47 35.3582 122.223 35.5506 122.023 35.8133L119.415 39.2409L118.173 38.2957Z" fill="white"/>
<path d="M136.16 56.0193L145.254 50.7599L147.065 53.8909C147.348 54.3802 147.482 54.8921 147.468 55.4264C147.455 55.965 147.311 56.4703 147.035 56.942C146.761 57.4181 146.376 57.8002 145.878 58.0882C145.371 58.3812 144.842 58.5254 144.29 58.5208C143.745 58.5181 143.237 58.3876 142.764 58.1295C142.291 57.8713 141.916 57.5041 141.641 57.0277L140.612 55.2479L136.942 57.3704L136.16 56.0193ZM141.963 54.4665L142.913 56.1099C143.063 56.3697 143.265 56.5682 143.518 56.7052C143.773 56.8466 144.045 56.9175 144.334 56.9179C144.626 56.9226 144.908 56.846 145.181 56.6882C145.454 56.5305 145.661 56.324 145.802 56.0689C145.95 55.8155 146.025 55.5443 146.025 55.2552C146.032 54.9678 145.961 54.6943 145.81 54.4344L144.86 52.791L141.963 54.4665Z" fill="white"/>
<path d="M141.717 66.9616L148.808 64.5058L149.318 65.9806L148.567 66.241C148.945 66.3853 149.281 66.6076 149.576 66.9079C149.871 67.2082 150.09 67.5663 150.234 67.9823C150.326 68.247 150.381 68.5217 150.4 68.8062L148.707 68.7334C148.715 68.5245 148.686 68.3279 148.622 68.1435C148.514 67.8315 148.337 67.5726 148.091 67.3666C147.85 67.159 147.572 67.0222 147.258 66.9563C146.944 66.8903 146.629 66.9122 146.312 67.0219L142.228 68.4365L141.717 66.9616Z" fill="white"/>
<path d="M144.786 79.6262C144.693 78.9421 144.784 78.2936 145.059 77.6806C145.335 77.0725 145.744 76.5598 146.288 76.1423C146.838 75.7292 147.472 75.4736 148.191 75.3757C148.736 75.3014 149.257 75.3288 149.754 75.4579C150.257 75.5864 150.709 75.7948 151.112 76.0833C151.52 76.376 151.857 76.734 152.122 77.1574C152.386 77.5807 152.553 78.0477 152.623 78.5582C152.716 79.2423 152.625 79.8883 152.349 80.4964C152.075 81.1094 151.662 81.6225 151.113 82.0356C150.564 82.4538 149.928 82.7121 149.204 82.8108C148.664 82.8844 148.145 82.8566 147.648 82.7275C147.15 82.5983 146.698 82.3874 146.289 82.0947C145.886 81.8063 145.553 81.4504 145.288 81.027C145.024 80.6086 144.857 80.1417 144.786 79.6262ZM146.333 79.4154C146.389 79.8268 146.548 80.1812 146.811 80.4787C147.074 80.7761 147.396 80.9947 147.779 81.1344C148.167 81.2784 148.572 81.3217 148.993 81.2643C149.424 81.2055 149.807 81.0523 150.142 80.8047C150.478 80.5621 150.73 80.2627 150.898 79.9065C151.072 79.5497 151.131 79.1705 151.077 78.769C151.021 78.3625 150.862 78.0081 150.598 77.7057C150.336 77.4083 150.01 77.1876 149.622 77.0436C149.235 76.9046 148.828 76.8641 148.401 76.9222C147.96 76.9823 147.575 77.1358 147.245 77.3827C146.915 77.6296 146.666 77.9312 146.497 78.2873C146.334 78.6478 146.28 79.0238 146.333 79.4154Z" fill="white"/>
<path d="M141.78 90.5703L141.921 89.016L153.131 90.0368L152.989 91.5912L151.89 91.4911C152.251 91.7752 152.534 92.1224 152.737 92.5327C152.941 92.9431 153.019 93.4123 152.971 93.9404C152.921 94.4834 152.773 94.9823 152.526 95.437C152.278 95.8966 151.956 96.2893 151.559 96.6148C151.168 96.9409 150.727 97.1845 150.235 97.3456C149.743 97.5068 149.225 97.5626 148.682 97.5132C148.139 97.4637 147.638 97.3151 147.178 97.0673C146.719 96.8195 146.323 96.4996 145.992 96.1078C145.666 95.7165 145.423 95.2723 145.262 94.7755C145.101 94.2836 145.045 93.7661 145.095 93.2231C145.143 92.695 145.304 92.2476 145.578 91.8808C145.858 91.5144 146.198 91.2239 146.6 91.0093L141.78 90.5703ZM151.47 93.7887C151.51 93.3552 151.435 92.9641 151.246 92.6154C151.056 92.2666 150.786 91.9833 150.434 91.7654C150.087 91.5479 149.689 91.4188 149.241 91.3779C148.793 91.3371 148.376 91.3921 147.99 91.5428C147.605 91.6936 147.288 91.9234 147.038 92.2322C146.789 92.5411 146.645 92.9122 146.605 93.3456C146.566 93.7741 146.638 94.1774 146.819 94.5556C147.006 94.9343 147.274 95.2475 147.623 95.4953C147.972 95.7431 148.373 95.8876 148.827 95.9289C149.27 95.9693 149.686 95.8992 150.074 95.7185C150.462 95.5429 150.781 95.2857 151.033 94.9469C151.285 94.6082 151.431 94.2221 151.47 93.7887Z" fill="white"/>
<path d="M142.613 105.38C142.829 104.724 143.194 104.181 143.709 103.75C144.223 103.323 144.816 103.041 145.487 102.904C146.162 102.773 146.844 102.82 147.534 103.046C148.056 103.218 148.513 103.47 148.904 103.804C149.299 104.139 149.615 104.524 149.851 104.96C150.091 105.402 150.237 105.871 150.29 106.367C150.343 106.864 150.289 107.357 150.128 107.846C149.949 108.393 149.67 108.857 149.292 109.238C148.919 109.621 148.48 109.909 147.975 110.101C147.474 110.295 146.94 110.383 146.372 110.365C145.808 110.349 145.247 110.214 144.687 109.962L146.491 104.465C146.143 104.419 145.807 104.441 145.483 104.529C145.162 104.624 144.881 104.784 144.638 105.01C144.394 105.241 144.214 105.526 144.096 105.867C143.978 106.228 143.961 106.586 144.045 106.94C144.127 107.299 144.296 107.625 144.552 107.92L143.709 109.31C143.171 108.817 142.794 108.217 142.578 107.509C142.368 106.803 142.379 106.093 142.613 105.38ZM147.641 104.787L146.312 108.837C146.67 108.902 147.019 108.882 147.359 108.778C147.701 108.679 148.001 108.512 148.258 108.275C148.518 108.044 148.704 107.758 148.816 107.416C148.927 107.078 148.949 106.738 148.883 106.395C148.815 106.057 148.672 105.747 148.454 105.465C148.239 105.189 147.968 104.963 147.641 104.787Z" fill="white"/>
<path d="M139.056 114.499L145.587 118.196L144.818 119.554L144.126 119.162C144.267 119.541 144.323 119.941 144.292 120.36C144.262 120.78 144.138 121.181 143.921 121.564C143.783 121.808 143.614 122.031 143.413 122.234L142.349 120.915C142.51 120.783 142.639 120.631 142.735 120.462C142.897 120.174 142.975 119.87 142.967 119.549C142.963 119.231 142.882 118.932 142.724 118.653C142.566 118.374 142.341 118.152 142.049 117.987L138.288 115.858L139.056 114.499Z" fill="white"/>
<path d="M135.906 129.606L136.902 128.385L132.304 124.62L133.291 123.412L137.889 127.176L138.644 126.252L139.853 127.239L139.098 128.163L140.928 129.648L139.941 130.857L138.111 129.372L137.114 130.593L135.906 129.606Z" fill="white"/>
<path d="M128.15 139.133L126.87 140.2L122.819 128.922L124.093 127.86L125.453 131.612L132.327 135.649L131.019 136.74L126.223 133.754L128.15 139.133Z" fill="white"/>
</svg>
