<svg xmlns="http://www.w3.org/2000/svg" fill="none" viewBox="0 0 22 22"><path fill="#fff" d="m1.8 3.8-.6.8L0 3.4 2.8.6l2.8 2.8-1.2 1.1-.8-.9v3.8l5.2-5.3H7.3c-.4.1-.7 0-1-.4L5 .5h13.5c1.4 0 2.4 1 2.4 2.4v13.5L19.6 15a1 1 0 0 1-.3-.9v-1.5L14 17.9H18l-1-.7 1.3-1.2 2.7 2.8-2.7 2.7-1.1-1.1.7-.7v-.1H4.3c-1.2 0-2-.6-2.4-1.6V3.8h-.2Zm1.8 12.9L18 2H16l-.3.2-12 12-.1.3v2ZM19.4 3.5 4.9 18h2l.3-.2A13750 13750 0 0 0 19.4 5.5v-2Zm0 4.6L9.4 18h2.2l.2-.2a4891 4891 0 0 0 7.6-7.7v-2ZM3.6 12l9.8-10h-2l-.2.2A4644.8 4644.8 0 0 0 3.6 10v2Z"/></svg>