<svg xmlns="http://www.w3.org/2000/svg" fill="none" viewBox="0 0 18 21"><path fill="#fff" fill-rule="evenodd" d="M1.8 18.3V2.7h-.3a.9.9 0 1 1 0-1.8h15a.9.9 0 1 1 0 1.8h-.3v15.6h.3a.9.9 0 0 1 0 1.8h-4.2a.9.9 0 0 1-.9-.9v-3c0-.5-.4-.9-.9-.9h-3c-.5 0-.9.4-.9.9v3c0 .5-.4.9-.9.9H1.5a.9.9 0 1 1 0-1.8h.3ZM5.4 5.1c0-.3.3-.6.6-.6h1.2c.3 0 .6.3.6.6v1.2c0 .3-.3.6-.6.6H6a.6.6 0 0 1-.6-.6V5.1ZM6 9.3c-.3 0-.6.3-.6.6v1.2c0 .3.3.6.6.6h1.2c.3 0 .6-.3.6-.6V9.9c0-.3-.3-.6-.6-.6H6Zm4.2-4.2c0-.3.3-.6.6-.6H12c.3 0 .6.3.6.6v1.2c0 .3-.3.6-.6.6h-1.2a.6.6 0 0 1-.6-.6V5.1Zm.6 4.2c-.3 0-.6.3-.6.6v1.2c0 .3.3.6.6.6H12c.3 0 .6-.3.6-.6V9.9c0-.3-.3-.6-.6-.6h-1.2Z" clip-rule="evenodd"/></svg>